<svg height="511pt" viewBox="0 0 511.99965 511" width="511pt" xmlns="http://www.w3.org/2000/svg"><path d="m490.292969 273.0625 13.417969 26.835938-60 30-13.417969-26.835938zm0 0"/><path d="m452 361.496094h60v30h-60zm0 0"/><path d="m490.296875 479.929688-59.996094-29.996094 13.417969-26.835938 59.996094 30zm0 0"/><path d="m144.484375 296.003906c-13.988281-7.644531-23.480469-22.484375-23.480469-39.507812v-60c0-24.8125 20.1875-44.996094 45-44.996094 9.910156 0 19 3.316406 26.441406 8.765625l88.414063-68.765625h66.144531c41.421875 0 74.996094-34.582031 74.996094-76v-15h-218.234375c-109.832031 0-201.769531 86.824219-203.7304688 192.308594-.9375002 50.242187 17.1953128 98.214844 51.0351558 135.085937 1.054688 1.148438 2.789063 2.433594 3.804688 3.601563h71.855469zm0 0"/><path d="m376.792969 121.5h-85.648438l-81.78125 63.609375c.964844 3.660156 1.640625 7.429687 1.640625 11.390625v15h-30v-15c0-8.277344-6.722656-15-15-15s-15 6.722656-15 15v60c0 8.273438 6.722656 15 15 15s15-6.734375 15-15.011719h30c0 21.417969-15.066406 39.332031-35.144531 43.847657l-30.582031 61.160156h-70.058594c9.835938 18.757812 15.667969 38.621094 15.785156 58.710937v92.289063h210v-61h46c24.8125 0 44.996094-20.183594 44.996094-45v-39.273438l-41.453125-20.726562 41.453125-20.726563v-30l70.328125-35.15625-70.429687-70.429687c-.765626-23.773438-6.046876-46.953125-15.105469-68.683594zm0 0"/></svg>